# xmcd
#
# Track frame offsets:
#	182
#	12632
#	33800
#	53352
#	66950
#	77855
#	89852
#	106035
#	122395
#	137320
#	152702
#	166087
#
# Disc length: 2487 seconds
#
# Revision: 1
# Processed by: cddbd v1.5.1PL0 Copyright (c) Steve Scherf et al.
# Submitted via: MusicWizard 7.0.2
#
DISCID=8909b50c
DTITLE=Kris Kristofferson - Me and Bobby McGee
DYEAR=1988
DGENRE=Country
TTITLE0=Blame It On The Stones
TTITLE1=To Beat The Devil
TTITLE2=Me And Bobby Mcgee
TTITLE3=The Best Of All Possible  Worlds
TTITLE4=Help Me Make It Through The Night
TTITLE5=The Law Is For Protection Of The People
TTITLE6=Casey's Last Ride
TTITLE7=Just The Other Side Of Nowhere
TTITLE8=Darby's Castle
TTITLE9=For The Goods Times
TTITLE10=Duvaliers Dream
TTITLE11=Sunday Mornin' Comin' Down
EXTD=(c)1988, Sony Music Special Products/ Zillion\nupc 027726106625\nZillion 2610662\n
EXTT0=
EXTT1=
EXTT2=
EXTT3=
EXTT4=
EXTT5=
EXTT6=
EXTT7=
EXTT8=
EXTT9=
EXTT10=
EXTT11=
PLAYORDER=
